<svg width="180" height="29" viewBox="0 0 180 29" fill="none" xmlns="http://www.w3.org/2000/svg">
<path d="M2.99801 23.2245V13.3968H0.954102L1.50321 8.5757H9.55683V23.2245H2.99801Z" fill="#181818"/>
<path d="M12.9035 23.2245V8.5757H19.0352L19.1877 9.56464C19.7165 9.21439 20.4385 8.91565 21.3536 8.66841C22.2688 8.40057 23.245 8.26665 24.2822 8.26665C26.0516 8.26665 27.343 8.73022 28.1565 9.65736C28.97 10.5639 29.3768 11.9546 29.3768 13.8295V23.2245H22.8179V14.6021C22.8179 14.087 22.7061 13.7265 22.4824 13.5204C22.2587 13.2938 21.8824 13.1805 21.3536 13.1805C21.0283 13.1805 20.6825 13.2629 20.3164 13.4277C19.9707 13.5925 19.686 13.7883 19.4623 14.0149V23.2245H12.9035Z" fill="#181818"/>
<path d="M38.5052 23.5335C37.2037 23.5335 35.9732 23.4305 34.814 23.2245C33.6548 23.0391 32.7599 22.8124 32.1295 22.5446V18.0943C32.6176 18.3416 33.1667 18.5579 33.7768 18.7433C34.4073 18.9081 35.0377 19.0318 35.6682 19.1142C36.2986 19.1966 36.8376 19.2378 37.285 19.2378C37.8748 19.2378 38.3425 19.2275 38.6883 19.2069C39.034 19.1657 39.2069 19.0215 39.2069 18.7742C39.2069 18.5682 39.0442 18.4034 38.7188 18.2797C38.4137 18.1561 38.007 18.0325 37.4985 17.9089C36.9901 17.7647 36.4308 17.5895 35.8207 17.3835C34.4988 16.889 33.5226 16.3328 32.8921 15.7147C32.282 15.076 31.9769 14.1591 31.9769 12.9642C31.9769 11.4395 32.5769 10.2755 33.7768 9.47193C34.997 8.66841 36.8782 8.26665 39.4204 8.26665C40.0509 8.26665 40.722 8.30786 41.4338 8.39027C42.1456 8.45208 42.8168 8.53449 43.4472 8.63751C44.098 8.74052 44.6166 8.86414 45.0031 9.00836V13.3968C44.3726 13.1084 43.6913 12.9023 42.9591 12.7787C42.227 12.6345 41.566 12.5624 40.9762 12.5624C40.4475 12.5624 39.9289 12.583 39.4204 12.6242C38.912 12.6654 38.6578 12.8096 38.6578 13.0569C38.6578 13.3247 38.9527 13.5204 39.5425 13.6441C40.1526 13.7677 40.8949 13.9737 41.7694 14.2621C42.8473 14.5712 43.6811 14.9214 44.2709 15.3129C44.881 15.7044 45.3081 16.1782 45.5522 16.7345C45.7962 17.2908 45.9182 17.9707 45.9182 18.7742C45.9182 20.2576 45.2878 21.4217 44.0269 22.2664C42.7863 23.1112 40.9457 23.5335 38.5052 23.5335Z" fill="#181818"/>
<path d="M50.2217 23.2245V13.3968H48.1778L48.7269 8.5757H56.7806V23.2245H50.2217Z" fill="#181818"/>
<path d="M66.686 28.6637C65.9742 28.6637 65.181 28.6328 64.3065 28.571C63.4523 28.5298 62.6389 28.4474 61.866 28.3237C61.0932 28.2207 60.4628 28.0868 59.9747 27.922V23.9353C60.5238 24.1207 61.1644 24.2649 61.8965 24.368C62.649 24.4916 63.4117 24.5843 64.1845 24.6461C64.9573 24.7079 65.659 24.7388 66.2894 24.7388C67.2249 24.7388 67.9876 24.6873 68.5774 24.5843C69.1875 24.5019 69.4926 24.3371 69.4926 24.0898C69.4926 23.8838 69.3807 23.7499 69.157 23.6881C68.9333 23.6468 68.5876 23.6262 68.1198 23.6262H64.4896C62.9032 23.6262 61.6932 23.3996 60.8593 22.9463C60.0255 22.4725 59.6086 21.7411 59.6086 20.7521C59.6086 19.3511 60.3814 18.3931 61.927 17.878C61.0932 17.4453 60.4831 16.9096 60.0967 16.2709C59.7306 15.6323 59.5476 14.8081 59.5476 13.7986C59.5476 11.9031 60.2085 10.5124 61.5305 9.62645C62.8727 8.71992 64.7641 8.26665 67.2046 8.26665C67.7334 8.26665 68.3333 8.30786 69.0045 8.39027C69.6756 8.45208 70.1535 8.51389 70.4383 8.5757H76.2344L76.1124 12.5624H74.343C74.5871 12.9539 74.7091 13.3968 74.7091 13.8913C74.7091 15.3953 74.2922 16.58 73.4584 17.4453C72.6449 18.3106 71.3026 18.7433 69.4316 18.7433C69.1875 18.7433 68.9129 18.733 68.6079 18.7124C68.3028 18.6918 68.0283 18.6712 67.7842 18.6506C67.4181 18.6712 67.0928 18.733 66.808 18.836C66.5436 18.939 66.4114 19.1142 66.4114 19.3614C66.4114 19.6705 66.7165 19.825 67.3266 19.825H70.2552C71.7602 19.825 72.9499 20.1649 73.8244 20.8448C74.7193 21.5247 75.1667 22.5652 75.1667 23.9662C75.1667 25.4084 74.4854 26.5519 73.1228 27.3966C71.7805 28.2413 69.6349 28.6637 66.686 28.6637ZM67.2656 15.1275C67.9978 15.1275 68.496 15.0039 68.7604 14.7566C69.0451 14.5094 69.1875 14.0973 69.1875 13.5204C69.1875 12.9229 69.0451 12.5006 68.7604 12.2533C68.4757 11.9855 67.9774 11.8516 67.2656 11.8516C66.5741 11.8516 66.0759 11.9855 65.7708 12.2533C65.4658 12.5006 65.3132 12.9229 65.3132 13.5204C65.3132 14.0767 65.4556 14.4888 65.7403 14.7566C66.0454 15.0039 66.5538 15.1275 67.2656 15.1275Z" fill="#181818"/>
<path d="M78.7383 23.2245V2.39477H85.2971V9.31741C85.7649 9.02896 86.3547 8.78173 87.0665 8.5757C87.7783 8.36966 88.5409 8.26665 89.3544 8.26665C91.3678 8.26665 92.8423 8.75082 93.7778 9.71917C94.7337 10.6669 95.2116 12.1297 95.2116 14.1076V23.2245H88.6223V14.633C88.6223 14.0973 88.5104 13.7265 88.2867 13.5204C88.0833 13.2938 87.7173 13.1805 87.1885 13.1805C86.8631 13.1805 86.5174 13.2629 86.1513 13.4277C85.8056 13.5925 85.5208 13.7883 85.2971 14.0149V23.2245H78.7383Z" fill="#181818"/>
<path d="M104.92 23.5335C102.845 23.5335 101.351 23.0185 100.435 21.9883C99.5201 20.9375 99.0625 19.5262 99.0625 17.7544V13.4277H97.2627V8.5757H99.0625V5.63976L105.621 4.18724V8.5757H108.763L108.58 13.4277H105.621V17.3526C105.621 18.3416 106.17 18.836 107.269 18.836C107.879 18.836 108.489 18.733 109.099 18.527V22.7918C108.509 23.0391 107.879 23.2245 107.208 23.3481C106.537 23.4717 105.774 23.5335 104.92 23.5335Z" fill="#181818"/>
<path d="M111.283 23.2245V3.32191H117.842V18.1561H126.262V23.2245H111.283Z" fill="#181818"/>
<path d="M128.405 23.2245V3.32191H134.964V23.2245H128.405Z" fill="#181818"/>
<path d="M138.317 23.2245V3.32191H143.839L150.306 12.5006V3.32191H156.865V23.2245H151.282L144.876 14.0767V23.2245H138.317Z" fill="#181818"/>
<path d="M160.235 23.2245V3.32191H166.794V9.62645L171.919 3.32191H179.332L172.529 11.5425L179.881 23.2245H172.926L168.502 15.7456L166.794 17.7544V23.2245H160.235Z" fill="#181818"/>
<path d="M9.63545 3.84116C9.63545 5.59603 7.9255 7.01863 5.81618 7.01863C3.70686 7.01863 1.99691 5.59603 1.99691 3.84116C1.99691 2.0863 3.70686 0.663696 5.81618 0.663696C7.9255 0.663696 9.63545 2.0863 9.63545 3.84116Z" fill="#FFDF6D"/>
<path d="M57.1925 3.84116C57.1925 5.59603 55.4826 7.01863 53.3733 7.01863C51.2639 7.01863 49.554 5.59603 49.554 3.84116C49.554 2.0863 51.2639 0.663696 53.3733 0.663696C55.4826 0.663696 57.1925 2.0863 57.1925 3.84116Z" fill="#181818"/>
</svg>
